<svg width="1350" height="149" viewBox="0 0 1350 149" fill="none" xmlns="http://www.w3.org/2000/svg">
<path d="M2.1875 119L27.8125 30.25H47.1875L72.8125 119H56.875L38.0625 47.5625H36.9375L18.125 119H2.1875ZM14.6875 100.25V86.375H59.6875V100.25H14.6875ZM94.375 94.8125V80.4375H101.875C107.042 80.4375 111.292 79.5417 114.625 77.75C117.958 75.9583 120.583 73.0417 122.5 69C124.417 64.9167 125.812 59.5 126.688 52.75H142.625C140.875 66.875 136.875 77.4167 130.625 84.375C124.417 91.3333 115.875 94.8125 105 94.8125H94.375ZM84.375 119V25.25H99.8125V119H84.375ZM128.312 119L111 86.75L125.062 81.625L146.875 119H128.312ZM184.188 119V56.5H199.562V119H184.188ZM159.375 119V105H185.438V119H159.375ZM198.312 119V105H219.5V119H198.312ZM163.125 66.75V52.75H199.562V66.75H163.125ZM191.25 43.1875C188.292 43.1875 185.854 42.2292 183.938 40.3125C182.021 38.3958 181.062 35.9583 181.062 33C181.062 30.0417 182.021 27.6042 183.938 25.6875C185.854 23.7708 188.292 22.8125 191.25 22.8125C194.208 22.8125 196.646 23.7708 198.562 25.6875C200.479 27.6042 201.438 30.0417 201.438 33C201.438 35.9583 200.479 38.3958 198.562 40.3125C196.646 42.2292 194.208 43.1875 191.25 43.1875ZM259.062 90.5L255.188 68.5H260.688C261.396 57.1667 267.208 51.5 278.125 51.5C284.625 51.5 289.5 53.6667 292.75 58C296 62.3333 297.625 68.875 297.625 77.625H282.25C282.25 73.3333 281.521 70.25 280.062 68.375C278.646 66.5 276.354 65.5625 273.188 65.5625C268.438 65.5625 264.896 67.7292 262.562 72.0625C260.229 76.3958 259.062 82.5417 259.062 90.5ZM229.375 119V105.625H274.875V119H229.375ZM243.688 119V52.75H256.562L259.062 71.75V119H243.688ZM231.875 66.125V52.75H255.688L256.938 66.125H231.875ZM350.25 119.625L349.062 100L348.188 92.625V78C348.188 74.125 346.667 71.2917 343.625 69.5C340.583 67.6667 336.042 66.6667 330 66.5L313.5 66.0625L314.75 52.125L328.75 52.3125C340.333 52.4792 348.938 54.8542 354.562 59.4375C360.188 63.9792 363 70.625 363 79.375V105.125L373 106.5V119L350.25 119.625ZM327.438 120.25C320.438 120.25 315 118.542 311.125 115.125C307.292 111.708 305.375 106.875 305.375 100.625C305.375 93.375 307.958 87.8125 313.125 83.9375C318.292 80.0625 325.604 78.125 335.062 78.125C338.812 78.125 342.104 78.3333 344.938 78.75C347.771 79.1667 350.479 79.8125 353.062 80.6875L350.312 92.1875C347.604 91.5625 345.083 91.2083 342.75 91.125C340.417 91 337.979 90.9375 335.438 90.9375C325.604 90.9375 320.688 93.8333 320.688 99.625C320.688 102.167 321.542 104.104 323.25 105.438C325 106.771 327.521 107.438 330.812 107.438C334.646 107.438 337.854 106.75 340.438 105.375C343.021 103.958 344.958 102.188 346.25 100.062C347.542 97.8958 348.188 95.6667 348.188 93.375V88L351.188 105H345.875L348.062 103C347.979 106.833 347.083 110.042 345.375 112.625C343.708 115.167 341.354 117.083 338.312 118.375C335.271 119.625 331.646 120.25 327.438 120.25ZM400.938 119L377.188 30.25H392.75L411.938 105.875H413.062L432.25 30.25H447.812L424.062 119H400.938ZM487.5 120.25C478.125 120.25 470.833 117.25 465.625 111.25C460.458 105.25 457.875 96.7917 457.875 85.875C457.875 74.9167 460.458 66.4583 465.625 60.5C470.833 54.5 478.125 51.5 487.5 51.5C496.917 51.5 504.208 54.5 509.375 60.5C514.542 66.4583 517.125 74.9167 517.125 85.875C517.125 96.7917 514.542 105.25 509.375 111.25C504.208 117.25 496.917 120.25 487.5 120.25ZM487.5 105.875C491.917 105.875 495.312 104.146 497.688 100.688C500.062 97.1875 501.25 92.25 501.25 85.875C501.25 79.4583 500.042 74.5208 497.625 71.0625C495.25 67.6042 491.875 65.875 487.5 65.875C483.125 65.875 479.729 67.6042 477.312 71.0625C474.938 74.5208 473.75 79.4583 473.75 85.875C473.75 92.25 474.938 97.1875 477.312 100.688C479.729 104.146 483.125 105.875 487.5 105.875ZM559.188 119V56.5H574.562V119H559.188ZM534.375 119V105H560.438V119H534.375ZM573.312 119V105H594.5V119H573.312ZM538.125 66.75V52.75H574.562V66.75H538.125ZM566.25 43.1875C563.292 43.1875 560.854 42.2292 558.938 40.3125C557.021 38.3958 556.062 35.9583 556.062 33C556.062 30.0417 557.021 27.6042 558.938 25.6875C560.854 23.7708 563.292 22.8125 566.25 22.8125C569.208 22.8125 571.646 23.7708 573.562 25.6875C575.479 27.6042 576.438 30.0417 576.438 33C576.438 35.9583 575.479 38.3958 573.562 40.3125C571.646 42.2292 569.208 43.1875 566.25 43.1875ZM631.562 120.25C623.146 120.25 616.667 117.333 612.125 111.5C607.625 105.667 605.375 97.2292 605.375 86.1875C605.375 74.9792 607.625 66.3958 612.125 60.4375C616.667 54.4792 623.167 51.5 631.625 51.5C636.5 51.5 640.312 52.625 643.062 54.875C645.812 57.125 647.521 60.4167 648.188 64.75H653.562L649.688 85C649.688 78.4167 648.5 73.5417 646.125 70.375C643.75 67.1667 640.229 65.5625 635.562 65.5625C630.854 65.5625 627.25 67.3333 624.75 70.875C622.25 74.4167 621 79.5208 621 86.1875C621 92.7708 622.229 97.75 624.688 101.125C627.146 104.5 630.771 106.188 635.562 106.188C640.562 106.188 644.167 104.604 646.375 101.438C648.583 98.2708 649.688 93.3958 649.688 86.8125L654.188 107H648.375C647.792 111.333 646.042 114.625 643.125 116.875C640.208 119.125 636.354 120.25 631.562 120.25ZM651.688 119.625L649.688 106.562V25.25H665.125V119L651.688 119.625Z" fill="white"/>
<path d="M712.5 120.25C709.583 120.25 707.104 119.229 705.062 117.188C703.021 115.104 702 112.625 702 109.75C702 106.792 703.021 104.292 705.062 102.25C707.104 100.208 709.583 99.1875 712.5 99.1875C715.458 99.1875 717.938 100.208 719.938 102.25C721.979 104.292 723 106.792 723 109.75C723 112.625 721.979 115.104 719.938 117.188C717.938 119.229 715.458 120.25 712.5 120.25ZM760.312 119L750.625 30.25H765.625L771.875 106.188H773.438L780.688 52.75H794.438L789.625 67.9375H787.125L781.5 119H760.312ZM793.5 119L787.875 67.9375H785.375L780.688 52.75H794.438L801.562 106.188H803.125L809.375 30.25H824.375L814.688 119H793.5ZM862.5 120.25C853.125 120.25 845.833 117.25 840.625 111.25C835.458 105.25 832.875 96.7917 832.875 85.875C832.875 74.9167 835.458 66.4583 840.625 60.5C845.833 54.5 853.125 51.5 862.5 51.5C871.917 51.5 879.208 54.5 884.375 60.5C889.542 66.4583 892.125 74.9167 892.125 85.875C892.125 96.7917 889.542 105.25 884.375 111.25C879.208 117.25 871.917 120.25 862.5 120.25ZM862.5 105.875C866.917 105.875 870.312 104.146 872.688 100.688C875.062 97.1875 876.25 92.25 876.25 85.875C876.25 79.4583 875.042 74.5208 872.625 71.0625C870.25 67.6042 866.875 65.875 862.5 65.875C858.125 65.875 854.729 67.6042 852.312 71.0625C849.938 74.5208 848.75 79.4583 848.75 85.875C848.75 92.25 849.938 97.1875 852.312 100.688C854.729 104.146 858.125 105.875 862.5 105.875ZM934.062 90.5L930.188 68.5H935.688C936.396 57.1667 942.208 51.5 953.125 51.5C959.625 51.5 964.5 53.6667 967.75 58C971 62.3333 972.625 68.875 972.625 77.625H957.25C957.25 73.3333 956.521 70.25 955.062 68.375C953.646 66.5 951.354 65.5625 948.188 65.5625C943.438 65.5625 939.896 67.7292 937.562 72.0625C935.229 76.3958 934.062 82.5417 934.062 90.5ZM904.375 119V105.625H949.875V119H904.375ZM918.688 119V52.75H931.562L934.062 71.75V119H918.688ZM906.875 66.125V52.75H930.688L931.938 66.125H906.875ZM1006.56 120.25C998.146 120.25 991.667 117.333 987.125 111.5C982.625 105.667 980.375 97.2292 980.375 86.1875C980.375 74.9792 982.625 66.3958 987.125 60.4375C991.667 54.4792 998.167 51.5 1006.62 51.5C1011.5 51.5 1015.31 52.625 1018.06 54.875C1020.81 57.125 1022.52 60.4167 1023.19 64.75H1028.56L1024.69 85C1024.69 78.4167 1023.5 73.5417 1021.12 70.375C1018.75 67.1667 1015.23 65.5625 1010.56 65.5625C1005.85 65.5625 1002.25 67.3333 999.75 70.875C997.25 74.4167 996 79.5208 996 86.1875C996 92.7708 997.229 97.75 999.688 101.125C1002.15 104.5 1005.77 106.188 1010.56 106.188C1015.56 106.188 1019.17 104.604 1021.38 101.438C1023.58 98.2708 1024.69 93.3958 1024.69 86.8125L1029.19 107H1023.38C1022.79 111.333 1021.04 114.625 1018.12 116.875C1015.21 119.125 1011.35 120.25 1006.56 120.25ZM1026.69 119.625L1024.69 106.562V25.25H1040.12V119L1026.69 119.625ZM1073.56 119V105.125H1090.38C1095.29 105.125 1099.1 104 1101.81 101.75C1104.52 99.4583 1105.88 96.25 1105.88 92.125C1105.88 87.9583 1104.46 84.75 1101.62 82.5C1098.79 80.2083 1094.75 79.0625 1089.5 79.0625H1073.81L1072.31 72.8125H1095.75C1103.96 72.8125 1110.29 74.7083 1114.75 78.5C1119.25 82.2917 1121.5 87.6667 1121.5 94.625C1121.5 102.375 1119.1 108.375 1114.31 112.625C1109.56 116.875 1102.79 119 1094 119H1073.56ZM1059.38 119V30.25H1074.44V119H1059.38ZM1069.31 75.375V69.25H1094.31V75.375H1069.31ZM1073.56 71.4375V65.1875H1086.62C1090.83 65.1875 1094.04 64.2708 1096.25 62.4375C1098.5 60.5625 1099.62 57.8542 1099.62 54.3125C1099.62 50.9792 1098.44 48.4583 1096.06 46.75C1093.73 45 1090.29 44.125 1085.75 44.125H1073.81L1072.31 30.25H1086.38C1095.58 30.25 1102.69 32.1875 1107.69 36.0625C1112.73 39.8958 1115.25 45.3542 1115.25 52.4375C1115.25 58.5208 1113.12 63.2083 1108.88 66.5C1104.67 69.7917 1098.67 71.4375 1090.88 71.4375H1073.56ZM1162.5 120.25C1153.12 120.25 1145.83 117.25 1140.62 111.25C1135.46 105.25 1132.88 96.7917 1132.88 85.875C1132.88 74.9167 1135.46 66.4583 1140.62 60.5C1145.83 54.5 1153.12 51.5 1162.5 51.5C1171.92 51.5 1179.21 54.5 1184.38 60.5C1189.54 66.4583 1192.12 74.9167 1192.12 85.875C1192.12 96.7917 1189.54 105.25 1184.38 111.25C1179.21 117.25 1171.92 120.25 1162.5 120.25ZM1162.5 105.875C1166.92 105.875 1170.31 104.146 1172.69 100.688C1175.06 97.1875 1176.25 92.25 1176.25 85.875C1176.25 79.4583 1175.04 74.5208 1172.62 71.0625C1170.25 67.6042 1166.88 65.875 1162.5 65.875C1158.12 65.875 1154.73 67.6042 1152.31 71.0625C1149.94 74.5208 1148.75 79.4583 1148.75 85.875C1148.75 92.25 1149.94 97.1875 1152.31 100.688C1154.73 104.146 1158.12 105.875 1162.5 105.875ZM1237.5 120.25C1228.12 120.25 1220.83 117.25 1215.62 111.25C1210.46 105.25 1207.88 96.7917 1207.88 85.875C1207.88 74.9167 1210.46 66.4583 1215.62 60.5C1220.83 54.5 1228.12 51.5 1237.5 51.5C1246.92 51.5 1254.21 54.5 1259.38 60.5C1264.54 66.4583 1267.12 74.9167 1267.12 85.875C1267.12 96.7917 1264.54 105.25 1259.38 111.25C1254.21 117.25 1246.92 120.25 1237.5 120.25ZM1237.5 105.875C1241.92 105.875 1245.31 104.146 1247.69 100.688C1250.06 97.1875 1251.25 92.25 1251.25 85.875C1251.25 79.4583 1250.04 74.5208 1247.62 71.0625C1245.25 67.6042 1241.88 65.875 1237.5 65.875C1233.12 65.875 1229.73 67.6042 1227.31 71.0625C1224.94 74.5208 1223.75 79.4583 1223.75 85.875C1223.75 92.25 1224.94 97.1875 1227.31 100.688C1229.73 104.146 1233.12 105.875 1237.5 105.875ZM1294.38 94.8125V80.4375H1301.88C1307.04 80.4375 1311.29 79.5417 1314.62 77.75C1317.96 75.9583 1320.58 73.0417 1322.5 69C1324.42 64.9167 1325.81 59.5 1326.69 52.75H1342.62C1340.88 66.875 1336.88 77.4167 1330.62 84.375C1324.42 91.3333 1315.88 94.8125 1305 94.8125H1294.38ZM1284.38 119V25.25H1299.81V119H1284.38ZM1328.31 119L1311 86.75L1325.06 81.625L1346.88 119H1328.31Z" fill="#99EBFF"/>
</svg>
