<svg width="675" height="149" viewBox="0 0 675 149" fill="none" xmlns="http://www.w3.org/2000/svg">
<path d="M37.5 120.25C34.5833 120.25 32.1042 119.229 30.0625 117.188C28.0208 115.104 27 112.625 27 109.75C27 106.792 28.0208 104.292 30.0625 102.25C32.1042 100.208 34.5833 99.1875 37.5 99.1875C40.4583 99.1875 42.9375 100.208 44.9375 102.25C46.9792 104.292 48 106.792 48 109.75C48 112.625 46.9792 115.104 44.9375 117.188C42.9375 119.229 40.4583 120.25 37.5 120.25ZM85.3125 119L75.625 30.25H90.625L96.875 106.188H98.4375L105.688 52.75H119.438L114.625 67.9375H112.125L106.5 119H85.3125ZM118.5 119L112.875 67.9375H110.375L105.688 52.75H119.438L126.562 106.188H128.125L134.375 30.25H149.375L139.688 119H118.5ZM187.5 120.25C178.125 120.25 170.833 117.25 165.625 111.25C160.458 105.25 157.875 96.7917 157.875 85.875C157.875 74.9167 160.458 66.4583 165.625 60.5C170.833 54.5 178.125 51.5 187.5 51.5C196.917 51.5 204.208 54.5 209.375 60.5C214.542 66.4583 217.125 74.9167 217.125 85.875C217.125 96.7917 214.542 105.25 209.375 111.25C204.208 117.25 196.917 120.25 187.5 120.25ZM187.5 105.875C191.917 105.875 195.312 104.146 197.688 100.688C200.062 97.1875 201.25 92.25 201.25 85.875C201.25 79.4583 200.042 74.5208 197.625 71.0625C195.25 67.6042 191.875 65.875 187.5 65.875C183.125 65.875 179.729 67.6042 177.312 71.0625C174.938 74.5208 173.75 79.4583 173.75 85.875C173.75 92.25 174.938 97.1875 177.312 100.688C179.729 104.146 183.125 105.875 187.5 105.875ZM259.062 90.5L255.188 68.5H260.688C261.396 57.1667 267.208 51.5 278.125 51.5C284.625 51.5 289.5 53.6667 292.75 58C296 62.3333 297.625 68.875 297.625 77.625H282.25C282.25 73.3333 281.521 70.25 280.062 68.375C278.646 66.5 276.354 65.5625 273.188 65.5625C268.438 65.5625 264.896 67.7292 262.562 72.0625C260.229 76.3958 259.062 82.5417 259.062 90.5ZM229.375 119V105.625H274.875V119H229.375ZM243.688 119V52.75H256.562L259.062 71.75V119H243.688ZM231.875 66.125V52.75H255.688L256.938 66.125H231.875ZM331.562 120.25C323.146 120.25 316.667 117.333 312.125 111.5C307.625 105.667 305.375 97.2292 305.375 86.1875C305.375 74.9792 307.625 66.3958 312.125 60.4375C316.667 54.4792 323.167 51.5 331.625 51.5C336.5 51.5 340.312 52.625 343.062 54.875C345.812 57.125 347.521 60.4167 348.188 64.75H353.562L349.688 85C349.688 78.4167 348.5 73.5417 346.125 70.375C343.75 67.1667 340.229 65.5625 335.562 65.5625C330.854 65.5625 327.25 67.3333 324.75 70.875C322.25 74.4167 321 79.5208 321 86.1875C321 92.7708 322.229 97.75 324.688 101.125C327.146 104.5 330.771 106.188 335.562 106.188C340.562 106.188 344.167 104.604 346.375 101.438C348.583 98.2708 349.688 93.3958 349.688 86.8125L354.188 107H348.375C347.792 111.333 346.042 114.625 343.125 116.875C340.208 119.125 336.354 120.25 331.562 120.25ZM351.688 119.625L349.688 106.562V25.25H365.125V119L351.688 119.625ZM398.562 119V105.125H415.375C420.292 105.125 424.104 104 426.812 101.75C429.521 99.4583 430.875 96.25 430.875 92.125C430.875 87.9583 429.458 84.75 426.625 82.5C423.792 80.2083 419.75 79.0625 414.5 79.0625H398.812L397.312 72.8125H420.75C428.958 72.8125 435.292 74.7083 439.75 78.5C444.25 82.2917 446.5 87.6667 446.5 94.625C446.5 102.375 444.104 108.375 439.312 112.625C434.562 116.875 427.792 119 419 119H398.562ZM384.375 119V30.25H399.438V119H384.375ZM394.312 75.375V69.25H419.312V75.375H394.312ZM398.562 71.4375V65.1875H411.625C415.833 65.1875 419.042 64.2708 421.25 62.4375C423.5 60.5625 424.625 57.8542 424.625 54.3125C424.625 50.9792 423.438 48.4583 421.062 46.75C418.729 45 415.292 44.125 410.75 44.125H398.812L397.312 30.25H411.375C420.583 30.25 427.688 32.1875 432.688 36.0625C437.729 39.8958 440.25 45.3542 440.25 52.4375C440.25 58.5208 438.125 63.2083 433.875 66.5C429.667 69.7917 423.667 71.4375 415.875 71.4375H398.562ZM487.5 120.25C478.125 120.25 470.833 117.25 465.625 111.25C460.458 105.25 457.875 96.7917 457.875 85.875C457.875 74.9167 460.458 66.4583 465.625 60.5C470.833 54.5 478.125 51.5 487.5 51.5C496.917 51.5 504.208 54.5 509.375 60.5C514.542 66.4583 517.125 74.9167 517.125 85.875C517.125 96.7917 514.542 105.25 509.375 111.25C504.208 117.25 496.917 120.25 487.5 120.25ZM487.5 105.875C491.917 105.875 495.312 104.146 497.688 100.688C500.062 97.1875 501.25 92.25 501.25 85.875C501.25 79.4583 500.042 74.5208 497.625 71.0625C495.25 67.6042 491.875 65.875 487.5 65.875C483.125 65.875 479.729 67.6042 477.312 71.0625C474.938 74.5208 473.75 79.4583 473.75 85.875C473.75 92.25 474.938 97.1875 477.312 100.688C479.729 104.146 483.125 105.875 487.5 105.875ZM562.5 120.25C553.125 120.25 545.833 117.25 540.625 111.25C535.458 105.25 532.875 96.7917 532.875 85.875C532.875 74.9167 535.458 66.4583 540.625 60.5C545.833 54.5 553.125 51.5 562.5 51.5C571.917 51.5 579.208 54.5 584.375 60.5C589.542 66.4583 592.125 74.9167 592.125 85.875C592.125 96.7917 589.542 105.25 584.375 111.25C579.208 117.25 571.917 120.25 562.5 120.25ZM562.5 105.875C566.917 105.875 570.312 104.146 572.688 100.688C575.062 97.1875 576.25 92.25 576.25 85.875C576.25 79.4583 575.042 74.5208 572.625 71.0625C570.25 67.6042 566.875 65.875 562.5 65.875C558.125 65.875 554.729 67.6042 552.312 71.0625C549.938 74.5208 548.75 79.4583 548.75 85.875C548.75 92.25 549.938 97.1875 552.312 100.688C554.729 104.146 558.125 105.875 562.5 105.875ZM619.375 94.8125V80.4375H626.875C632.042 80.4375 636.292 79.5417 639.625 77.75C642.958 75.9583 645.583 73.0417 647.5 69C649.417 64.9167 650.812 59.5 651.688 52.75H667.625C665.875 66.875 661.875 77.4167 655.625 84.375C649.417 91.3333 640.875 94.8125 630 94.8125H619.375ZM609.375 119V25.25H624.812V119H609.375ZM653.312 119L636 86.75L650.062 81.625L671.875 119H653.312Z" fill="#99EBFF"/>
</svg>
