<svg width="225" height="149" viewBox="0 0 225 149" fill="none" xmlns="http://www.w3.org/2000/svg">
<path d="M37.5 120.25C34.5833 120.25 32.1042 119.229 30.0625 117.188C28.0208 115.104 27 112.625 27 109.75C27 106.792 28.0208 104.292 30.0625 102.25C32.1042 100.208 34.5833 99.1875 37.5 99.1875C40.4583 99.1875 42.9375 100.208 44.9375 102.25C46.9792 104.292 48 106.792 48 109.75C48 112.625 46.9792 115.104 44.9375 117.188C42.9375 119.229 40.4583 120.25 37.5 120.25ZM85.3125 119L75.625 30.25H90.625L96.875 106.188H98.4375L105.688 52.75H119.438L114.625 67.9375H112.125L106.5 119H85.3125ZM118.5 119L112.875 67.9375H110.375L105.688 52.75H119.438L126.562 106.188H128.125L134.375 30.25H149.375L139.688 119H118.5ZM173.562 119V105.125H190.375C195.292 105.125 199.104 104 201.812 101.75C204.521 99.4583 205.875 96.25 205.875 92.125C205.875 87.9583 204.458 84.75 201.625 82.5C198.792 80.2083 194.75 79.0625 189.5 79.0625H173.812L172.312 72.8125H195.75C203.958 72.8125 210.292 74.7083 214.75 78.5C219.25 82.2917 221.5 87.6667 221.5 94.625C221.5 102.375 219.104 108.375 214.312 112.625C209.562 116.875 202.792 119 194 119H173.562ZM159.375 119V30.25H174.438V119H159.375ZM169.312 75.375V69.25H194.312V75.375H169.312ZM173.562 71.4375V65.1875H186.625C190.833 65.1875 194.042 64.2708 196.25 62.4375C198.5 60.5625 199.625 57.8542 199.625 54.3125C199.625 50.9792 198.438 48.4583 196.062 46.75C193.729 45 190.292 44.125 185.75 44.125H173.812L172.312 30.25H186.375C195.583 30.25 202.688 32.1875 207.688 36.0625C212.729 39.8958 215.25 45.3542 215.25 52.4375C215.25 58.5208 213.125 63.2083 208.875 66.5C204.667 69.7917 198.667 71.4375 190.875 71.4375H173.562Z" fill="#003E92"/>
</svg>
