<svg width="250" height="250" viewBox="0 0 250 250" fill="none" xmlns="http://www.w3.org/2000/svg">
<path d="M50 170.75C47.0833 170.75 44.6042 169.729 42.5625 167.688C40.5208 165.604 39.5 163.125 39.5 160.25C39.5 157.292 40.5208 154.792 42.5625 152.75C44.6042 150.708 47.0833 149.688 50 149.688C52.9583 149.688 55.4375 150.708 57.4375 152.75C59.4792 154.792 60.5 157.292 60.5 160.25C60.5 163.125 59.4792 165.604 57.4375 167.688C55.4375 169.729 52.9583 170.75 50 170.75ZM97.8125 169.5L88.125 80.75H103.125L109.375 156.688H110.938L118.188 103.25H131.938L127.125 118.438H124.625L119 169.5H97.8125ZM131 169.5L125.375 118.438H122.875L118.188 103.25H131.938L139.062 156.688H140.625L146.875 80.75H161.875L152.188 169.5H131ZM186.062 169.5V155.625H202.875C207.792 155.625 211.604 154.5 214.312 152.25C217.021 149.958 218.375 146.75 218.375 142.625C218.375 138.458 216.958 135.25 214.125 133C211.292 130.708 207.25 129.562 202 129.562H186.312L184.812 123.312H208.25C216.458 123.312 222.792 125.208 227.25 129C231.75 132.792 234 138.167 234 145.125C234 152.875 231.604 158.875 226.812 163.125C222.062 167.375 215.292 169.5 206.5 169.5H186.062ZM171.875 169.5V80.75H186.938V169.5H171.875ZM181.812 125.875V119.75H206.812V125.875H181.812ZM186.062 121.938V115.688H199.125C203.333 115.688 206.542 114.771 208.75 112.938C211 111.062 212.125 108.354 212.125 104.812C212.125 101.479 210.938 98.9583 208.562 97.25C206.229 95.5 202.792 94.625 198.25 94.625H186.312L184.812 80.75H198.875C208.083 80.75 215.188 82.6875 220.188 86.5625C225.229 90.3958 227.75 95.8542 227.75 102.938C227.75 109.021 225.625 113.708 221.375 117C217.167 120.292 211.167 121.938 203.375 121.938H186.062Z" fill="#003E92"/>
</svg>
